<svg width="41" height="43" viewBox="0 0 41 43" fill="none" xmlns="http://www.w3.org/2000/svg">
<path fill-rule="evenodd" clip-rule="evenodd" d="M39.5487 0.0701302C37.4082 -0.119442 30.262 -0.325811 29.2806 5.26536L29.0094 7.22828L28.8822 8.14494C28.8822 8.14494 38.5 11.3029 40.1534 0.13732C40.1534 0.13732 39.9302 0.103725 39.5487 0.0701302Z" fill="#F4C738"/>
<path fill-rule="evenodd" clip-rule="evenodd" d="M38.7304 4.63418C35.5413 10.3333 28.8822 8.14486 28.8822 8.14486L29.0094 7.2282L29.2806 5.26529C29.8637 1.95618 32.6065 0.677166 35.1909 0.223633C35.0853 0.473196 35.0085 0.739557 34.9678 1.01792C34.7086 2.76726 35.9156 4.39662 37.6674 4.65578C38.0321 4.70857 38.3896 4.70137 38.7304 4.63418Z" fill="#F4C738"/>
<path fill-rule="evenodd" clip-rule="evenodd" d="M17.7262 26.1538L17.1287 20.1043C16.2504 11.204 6.68301 9.50268 0 12.0415C2.51483 13.1717 3.33551 16.3705 3.94982 22.4272L4.48254 27.6824C4.50654 27.9176 4.53293 28.1479 4.56413 28.3711C4.49454 28.4215 4.60732 29.0694 4.61452 29.1438C4.68171 29.8301 4.79449 30.514 4.94567 31.1883C5.38001 33.1272 6.14069 35.0205 7.27573 36.6595C8.8211 38.8912 11.1224 40.5781 13.6924 41.4348C15.7561 42.1235 17.959 42.2914 20.1306 42.2435C21.412 42.2147 22.7007 42.1115 23.9389 41.7875C27.4807 40.8589 30.2307 38.0321 32.2272 35.0853C32.2272 35.0853 18.3861 35.834 17.7238 26.1562L17.7262 26.1538Z" fill="#273A59"/>
<path fill-rule="evenodd" clip-rule="evenodd" d="M12.3847 30.9321C12.1327 30.169 11.948 29.382 11.8352 28.5757C11.744 27.923 11.66 27.2703 11.5736 26.6152C11.408 25.3745 11.2425 24.1315 11.0745 22.8909C11.0193 22.471 10.9617 22.051 10.9065 21.6311C9.39473 10.324 0.00971222 12.1309 0.00971222 12.1309C2.52454 13.2611 3.34522 16.4599 3.95953 22.5166L4.46826 27.5294C5.41612 41.6034 16.3825 42.1169 16.3825 42.1169C24.9228 43.1631 27.7976 39.7292 27.7976 39.7292C25.2036 40.2404 22.564 40.5451 20.1331 39.4725C16.4377 37.8407 13.6157 34.6852 12.3847 30.9321Z" fill="#203349"/>
<path d="M26.434 40.4153C26.434 40.4153 26.4181 40.4206 26.4128 40.4259C26.4208 40.4232 26.4287 40.4206 26.434 40.4153Z" fill="#EAB82D"/>
<path d="M34.4925 9.95434C31.6897 9.92075 26.7344 10.5255 26.1033 15.1376C25.2154 21.6166 24.2964 27.0518 24.2964 27.0518C24.2964 27.0518 24.2532 27.3566 24.138 27.8581C24.09 28.0621 24.03 28.2996 23.9556 28.5588C23.9556 28.5612 23.9556 28.5636 23.9532 28.566C23.9292 28.65 23.9052 28.734 23.8812 28.8228C23.8812 28.8276 23.8764 28.8324 23.8764 28.8372C23.5933 29.7754 23.1374 30.9776 22.4319 32.1679C21.4792 33.6557 19.2067 36.1489 14.8802 35.645C15.4945 36.0553 16.0824 36.4104 16.6487 36.72C26.4009 42.052 29.1797 33.0821 29.7508 30.5673H29.7772C30.2859 27.2846 32.3784 14.9744 33.0191 12.546C33.7558 9.75997 37.5088 10.2447 37.5088 10.2447C37.5088 10.2447 35.8747 9.91115 34.4877 9.95194L34.4925 9.95434Z" fill="#ECAA2C"/>
<path d="M33.0241 12.5483C32.3809 14.9792 30.2885 27.2894 29.7821 30.5673H29.7557C29.1846 33.0845 26.4058 42.052 16.6537 36.7224C16.0874 36.4128 15.4994 36.0577 14.8851 35.6473C14.8851 35.6473 15.3219 36.156 16.1162 36.8375C17.5247 38.0446 20.066 39.7939 23.3607 40.2594C23.4831 40.233 23.603 40.2019 23.7206 40.1683C23.603 40.2019 23.4855 40.233 23.3655 40.2594C24.4597 40.4634 25.6691 40.5162 26.7442 40.1899C27.788 39.8731 28.7383 39.2948 29.559 38.5821C31.5939 36.816 32.7817 34.4643 33.4248 31.8775C33.4608 31.7311 33.7248 30.2457 33.7703 30.2409C33.7703 30.2409 33.7415 30.2409 33.6912 30.2481L33.7703 30.2409C34.0079 28.9163 34.1711 27.5773 34.3727 26.2503C34.5982 24.7721 34.8262 23.2939 35.0614 21.8158C35.2989 20.328 35.5413 18.8426 35.8004 17.3572C36.0236 16.0758 36.2564 14.7944 36.5203 13.5202C36.6979 12.6587 36.8755 11.7876 37.149 10.9502C37.1994 10.799 37.281 10.4222 37.4418 10.2855C37.4682 10.2567 37.4922 10.2423 37.5138 10.2423C37.5138 10.2423 33.7607 9.75753 33.0241 12.5435V12.5483ZM25.7963 39.0356C25.7843 39.0452 25.7699 39.0572 25.7579 39.0668C25.7915 39.038 25.8251 39.0092 25.8563 38.978C25.8347 38.9972 25.8179 39.0164 25.7963 39.0356ZM28.8295 34.3347C28.8295 34.3347 28.8247 34.3467 28.8223 34.3515C28.8271 34.3371 28.8319 34.3251 28.8367 34.3107C28.8343 34.3179 28.8319 34.3251 28.8295 34.3323V34.3347Z" fill="#EAB82D"/>
</svg>
